# xmcd CD database file
#
# Track frame offsets:
#	150
#	8695
#	22276
#	32497
#	43307
#	55095
#	65151
#	73661
#	83046
#	93171
#	102100
#	116605
#	125318
#	137108
#	147141
#	157302
#	166117
#	177052
#	187510
#	196704
#	208086
#	216544
#	227097
#	235178
#	252860
#
# Disc length: 3539 seconds
#
# Revision: 0
# Processed by: cddbd v1.5.2PL0 Copyright (c) Steve Scherf et al.
# Submitted via: CDex 1.51
#
DISCID=5a0dd119
DTITLE=Johnny Cash - 100 Hits Disc 4
DYEAR=2017
DGENRE=Country
TTITLE0=The Rebel Johnny Yuma
TTITLE1=Tennessee Flat-Top Box
TTITLE2=Busted
TTITLE3=In The Jailhouse Now
TTITLE4=Thanks A Lot
TTITLE5=Goodbye, Little Darlin'
TTITLE6=I'll Remember You
TTITLE7=I Couldn't Keep From Crying
TTITLE8=Straight As In Love
TTITLE9=I Will Miss You When You Go
TTITLE10=Going To Memphis
TTITLE11=Katy, Too
TTITLE12=I'm So Lonesome I Could Cry
TTITLE13=I Was There When It Happened
TTITLE14=Loading Coal
TTITLE15=Remember Me
TTITLE16=I Love You Because (alt. vers.)
TTITLE17=My Shoes Keep Walking Back To You
TTITLE18=Luther Played The Boogie
TTITLE19=Transfusion Blues
TTITLE20=I Forgot To Remember To Forget
TTITLE21=Bonanza
TTITLE22=Time Changes Everything
TTITLE23=Were You There (When They Crucified My Lord)
TTITLE24=(There'll Be) Peace In The Valley [with the Carter Family]
EXTD=YEAR: 2017
EXTT0=
EXTT1=
EXTT2=
EXTT3=
EXTT4=
EXTT5=
EXTT6=
EXTT7=
EXTT8=
EXTT9=
EXTT10=
EXTT11=
EXTT12=
EXTT13=
EXTT14=
EXTT15=
EXTT16=
EXTT17=
EXTT18=
EXTT19=
EXTT20=
EXTT21=
EXTT22=
EXTT23=
EXTT24=
PLAYORDER=
